<mxfile host="app.diagrams.net" modified="2022-04-02T00:12:51.849Z" agent="5.0 (Windows NT 10.0; Win64; x64) AppleWebKit/537.36 (KHTML, like Gecko) Chrome/98.0.4758.109 Safari/537.36 OPR/84.0.4316.52" etag="8xVEZNZBTET1dacK2sPI" version="17.4.0" type="github">
  <diagram id="C5RBs43oDa-KdzZeNtuy" name="Page-1">
    <mxGraphModel dx="1381" dy="787" grid="1" gridSize="10" guides="1" tooltips="1" connect="1" arrows="1" fold="1" page="1" pageScale="1" pageWidth="1920" pageHeight="1200" math="0" shadow="0">
      <root>
        <mxCell id="WIyWlLk6GJQsqaUBKTNV-0" />
        <mxCell id="WIyWlLk6GJQsqaUBKTNV-1" parent="WIyWlLk6GJQsqaUBKTNV-0" />
        <mxCell id="WaL-RAjfXhhj6q7CsUBd-4" value="Hava Yolu Şirketi" style="html=1;" vertex="1" parent="WIyWlLk6GJQsqaUBKTNV-1">
          <mxGeometry x="660" y="60" width="110" height="50" as="geometry" />
        </mxCell>
        <mxCell id="WaL-RAjfXhhj6q7CsUBd-5" value="Uçaklar&#xa;" style="swimlane;fontStyle=1;align=center;verticalAlign=top;childLayout=stackLayout;horizontal=1;startSize=26;horizontalStack=0;resizeParent=1;resizeParentMax=0;resizeLast=0;collapsible=1;marginBottom=0;" vertex="1" parent="WIyWlLk6GJQsqaUBKTNV-1">
          <mxGeometry x="490" y="250" width="160" height="110" as="geometry" />
        </mxCell>
        <mxCell id="WaL-RAjfXhhj6q7CsUBd-6" value="-ucakID : int" style="text;strokeColor=none;fillColor=none;align=left;verticalAlign=top;spacingLeft=4;spacingRight=4;overflow=hidden;rotatable=0;points=[[0,0.5],[1,0.5]];portConstraint=eastwest;" vertex="1" parent="WaL-RAjfXhhj6q7CsUBd-5">
          <mxGeometry y="26" width="160" height="26" as="geometry" />
        </mxCell>
        <mxCell id="WaL-RAjfXhhj6q7CsUBd-7" value="" style="line;strokeWidth=1;fillColor=none;align=left;verticalAlign=middle;spacingTop=-1;spacingLeft=3;spacingRight=3;rotatable=0;labelPosition=right;points=[];portConstraint=eastwest;" vertex="1" parent="WaL-RAjfXhhj6q7CsUBd-5">
          <mxGeometry y="52" width="160" height="8" as="geometry" />
        </mxCell>
        <mxCell id="WaL-RAjfXhhj6q7CsUBd-8" value="+isWorkable() : boolean&#xa;+isRepair() : boolean" style="text;strokeColor=none;fillColor=none;align=left;verticalAlign=top;spacingLeft=4;spacingRight=4;overflow=hidden;rotatable=0;points=[[0,0.5],[1,0.5]];portConstraint=eastwest;" vertex="1" parent="WaL-RAjfXhhj6q7CsUBd-5">
          <mxGeometry y="60" width="160" height="50" as="geometry" />
        </mxCell>
        <mxCell id="WaL-RAjfXhhj6q7CsUBd-18" value="Uçak X" style="html=1;" vertex="1" parent="WIyWlLk6GJQsqaUBKTNV-1">
          <mxGeometry x="360" y="470" width="110" height="50" as="geometry" />
        </mxCell>
        <mxCell id="WaL-RAjfXhhj6q7CsUBd-19" value="Uçak Y" style="html=1;" vertex="1" parent="WIyWlLk6GJQsqaUBKTNV-1">
          <mxGeometry x="630" y="470" width="110" height="50" as="geometry" />
        </mxCell>
        <mxCell id="WaL-RAjfXhhj6q7CsUBd-23" value="Extends" style="endArrow=block;endSize=16;endFill=0;html=1;rounded=0;entryX=0.538;entryY=1.04;entryDx=0;entryDy=0;entryPerimeter=0;" edge="1" parent="WIyWlLk6GJQsqaUBKTNV-1" target="WaL-RAjfXhhj6q7CsUBd-8">
          <mxGeometry width="160" relative="1" as="geometry">
            <mxPoint x="576" y="420" as="sourcePoint" />
            <mxPoint x="580" y="420" as="targetPoint" />
          </mxGeometry>
        </mxCell>
        <mxCell id="WaL-RAjfXhhj6q7CsUBd-24" value="" style="endArrow=none;html=1;rounded=0;" edge="1" parent="WIyWlLk6GJQsqaUBKTNV-1">
          <mxGeometry width="50" height="50" relative="1" as="geometry">
            <mxPoint x="410" y="420" as="sourcePoint" />
            <mxPoint x="700" y="420" as="targetPoint" />
          </mxGeometry>
        </mxCell>
        <mxCell id="WaL-RAjfXhhj6q7CsUBd-26" value="" style="endArrow=none;html=1;rounded=0;exitX=0.591;exitY=-0.08;exitDx=0;exitDy=0;exitPerimeter=0;" edge="1" parent="WIyWlLk6GJQsqaUBKTNV-1" source="WaL-RAjfXhhj6q7CsUBd-19">
          <mxGeometry width="50" height="50" relative="1" as="geometry">
            <mxPoint x="730" y="410" as="sourcePoint" />
            <mxPoint x="695" y="420" as="targetPoint" />
          </mxGeometry>
        </mxCell>
        <mxCell id="WaL-RAjfXhhj6q7CsUBd-27" value="" style="endArrow=none;html=1;rounded=0;exitX=0.445;exitY=0.02;exitDx=0;exitDy=0;exitPerimeter=0;" edge="1" parent="WIyWlLk6GJQsqaUBKTNV-1" source="WaL-RAjfXhhj6q7CsUBd-18">
          <mxGeometry width="50" height="50" relative="1" as="geometry">
            <mxPoint x="410.0100000000002" y="466" as="sourcePoint" />
            <mxPoint x="410" y="420" as="targetPoint" />
          </mxGeometry>
        </mxCell>
      </root>
    </mxGraphModel>
  </diagram>
</mxfile>
